:SAMPLES-PER-SECOND 30
:FULLY-SPECIFIED
:DEGREES
327
root  69.1714 37.8851 8.27476 43.9388 83.4863 43.4252
RightUpLeg  -21.5595 9.05563 -15.1289
RightLeg  15.0592 7.84495 1.74715
RightFoot  1.01933 -1.22763 11.346
RightToes  5.82063e-011 0 -3.6325e-017
Spine  23.5556 -0.705378 2.41961
Spine1  7.7285 1.75124 -6.73847
HEad  -74.606 -51.9463 68.6087
LeftShoulder1  1.54389 -3.93374 -13.8191
LeftArm  -29.9283 -69.4687 -20.0063
LeftForeArm  -24.3765 -17.6997 -4.85495
LeftHand  -0.143533 8.41087 -3.52494
RightShoulder  0.657644 3.42356 1.19446
RightArm  3.29753 70.4772 31.1567
RightForeArm  56.2878 7.13533 4.09178
RightHand  19.5738 20.6445 74.5269
LeftUpLeg  -19.6457 7.65227 -3.50726
LeftLeg  15.0468 3.87516 -0.957604
LeftFoot  -3.42115 0.566853 -7.88967
LeftToes  1.68253e-010 -3.2327e-011 -2.69673e-012
328
root  69.3349 37.9756 8.71238 49.0261 84.2519 48.0076
RightUpLeg  -21.7298 8.75418 -14.3007
RightLeg  15.221 7.06519 1.52749
RightFoot  2.18432 -1.14769 9.78043
RightToes  5.82063e-011 0 -3.6325e-017
Spine  23.6373 -0.61491 2.93754
Spine1  8.51808 1.94125 -6.58172
HEad  -76.4498 -51.069 70.4261
LeftShoulder1  1.56919 -4.40727 -12.7923
LeftArm  -32.8597 -70.7395 -17.9011
LeftForeArm  -24.615 -15.0836 -4.05265
LeftHand  -0.179915 8.79563 -4.24936
RightShoulder  0.584637 3.53549 -0.137203
RightArm  80.5549 69.3639 57.6646
RightForeArm  20.4004 18.2354 10.7873
RightHand  8.50493 24.9256 28.0534
LeftUpLeg  -19.5449 6.78661 -2.73759
LeftLeg  14.0013 3.67481 -1.01279
LeftFoot  -1.57872 0.599571 -6.93275
LeftToes  1.68253e-010 -3.2327e-011 -2.69673e-012
329
root  69.5159 38.0276 9.17784 54.308 84.9992 52.5222
RightUpLeg  -22.1716 8.01729 -13.3252
RightLeg  15.4599 6.65755 1.5214
RightFoot  2.96706 -1.1128 8.99955
RightToes  5.82063e-011 0 -3.6325e-017
Spine  23.4977 -0.56957 3.12131
Spine1  8.94873 1.95997 -6.23151
HEad  -78.0285 -49.5165 70.8937
LeftShoulder1  1.5806 -4.68623 -12.2128
LeftArm  -35.5934 -71.676 -15.1596
LeftForeArm  -24.5104 -12.77 -3.39607
LeftHand  -0.186526 8.72014 -4.56969
RightShoulder  0.510119 3.92928 -1.82141
RightArm  120.184 64.445 68.1192
RightForeArm  -9.70012 35.2142 7.80293
RightHand  1.11744 5.17586 13.1734
LeftUpLeg  -20.0338 6.49776 -1.99931
LeftLeg  13.5294 2.57353 -1.19026
LeftFoot  0.499213 0.548557 -5.31479
LeftToes  1.68253e-010 -3.2327e-011 -2.69673e-012
330
root  69.6675 38.1075 9.64177 65.6246 85.5772 63.7463
RightUpLeg  -21.9228 5.95078 -12.2553
RightLeg  15.9675 7.49344 1.95083
RightFoot  3.27341 -0.934619 7.48337
RightToes  5.82063e-011 0 -3.6325e-017
Spine  24.3268 -0.838859 3.92989
Spine1  8.93801 2.08825 -7.20101
HEad  -80.1683 -48.7189 73.469
LeftShoulder1  1.59118 -5.09831 -11.3165
LeftArm  -37.9902 -72.7557 -11.9613
LeftForeArm  -25.0824 -10.5203 -3.19613
LeftHand  -0.130177 7.57409 -4.39041
RightShoulder  0.462756 3.86041 -2.46787
RightArm  121.24 61.3843 70.919
RightForeArm  -10.0765 44.0214 11.3782
RightHand  -0.333538 -7.86197 8.94497
LeftUpLeg  -19.5782 5.70516 -1.4501
LeftLeg  12.5072 1.80822 -1.15647
LeftFoot  2.37507 0.526975 -4.4899
LeftToes  1.68253e-010 -3.2327e-011 -2.69673e-012
331
root  69.831 38.2157 10.1183 83.5098 86.4529 80.6382
RightUpLeg  -22.1706 2.97416 -10.5236
RightLeg  15.6786 8.85877 2.10283
RightFoot  4.29905 -0.674428 5.1057
RightToes  5.82063e-011 0 -3.6325e-017
Spine  24.1564 -0.906233 4.2073
Spine1  8.94437 1.73884 -6.21257
HEad  -81.5297 -47.3024 73.6798
LeftShoulder1  1.5974 -5.26991 -10.9987
LeftArm  -40.4515 -73.5234 -9.87232
LeftForeArm  -24.7251 -8.86265 -2.63753
LeftHand  -0.112323 7.31642 -4.09265
RightShoulder  0.429101 3.98789 -3.11994
RightArm  123.421 61.1178 72.0472
RightForeArm  -11.5324 45.3901 12.0647
RightHand  -0.404543 -9.73641 6.82481
LeftUpLeg  -19.9831 5.2815 -0.676689
LeftLeg  11.2005 1.03507 -1.07913
LeftFoot  3.91971 0.569478 -4.42763
LeftToes  1.68253e-010 -3.2327e-011 -2.69673e-012
332
root  69.9911 38.2991 10.5956 98.764 86.5983 95.3502
RightUpLeg  -22.3267 2.05662 -9.53758
RightLeg  15.7695 8.64821 2.02796
RightFoot  4.20613 -0.574381 4.41546
RightToes  5.82063e-011 0 -3.6325e-017
Spine  24.207 -0.88416 4.607
Spine1  9.58488 1.87928 -6.32132
HEad  -83.0418 -46.8738 75.7662
LeftShoulder1  1.58587 -5.44266 -10.4638
LeftArm  -43.5936 -74.444 -7.34914
LeftForeArm  -25.132 -7.57418 -2.00454
LeftHand  -0.103898 7.761 -2.84789
RightShoulder  0.380495 3.68951 -3.61232
RightArm  126.229 62.8289 70.1041
RightForeArm  -17.6264 42.9264 11.9101
RightHand  0.798025 -4.25049 7.61975
LeftUpLeg  -19.7868 5.15739 0.0173865
LeftLeg  9.80643 0.575462 -1.17868
LeftFoot  5.1762 0.605958 -4.39142
LeftToes  1.68253e-010 -3.2327e-011 -2.69673e-012
333
root  70.1234 38.3525 11.0991 109.852 86.6801 106
RightUpLeg  -22.5355 2.64341 -8.64891
RightLeg  15.8799 7.39428 1.61928
RightFoot  4.07438 -0.48653 3.79857
RightToes  5.82063e-011 0 -3.6325e-017
Spine  24.7315 -0.769492 4.32951
Spine1  8.89376 1.73902 -5.74063
HEad  -82.7043 -46.5585 75.5717
LeftShoulder1  1.57309 -5.55673 -10.0593
LeftArm  -44.6902 -74.5317 -6.16181
LeftForeArm  -24.5864 -6.11301 -1.69837
LeftHand  -0.092175 6.91794 -3.70493
RightShoulder  0.383661 4.20239 -3.9719
RightArm  141.731 68.2941 69.8866
RightForeArm  -36.9722 27.5794 7.44479
RightHand  3.90577 25.0847 15.2177
LeftUpLeg  -19.5074 5.60998 0.928258
LeftLeg  8.47666 -0.342765 -1.52969
LeftFoot  6.27854 0.673892 -4.59154
LeftToes  1.68253e-010 -3.2327e-011 -2.69673e-012
334
root  70.2791 38.3934 11.5944 123.129 86.4739 118.999
RightUpLeg  -22.7378 1.91674 -7.72631
RightLeg  16.4646 7.08707 1.80828
RightFoot  3.91429 -0.340379 2.7398
RightToes  5.82063e-011 0 -3.6325e-017
Spine  24.7901 -0.739973 4.14464
Spine1  9.32929 1.59795 -5.21035
HEad  -83.466 -45.736 75.6206
LeftShoulder1  1.53686 -5.63576 -9.44979
LeftArm  -46.0313 -74.4727 -4.73357
LeftForeArm  -24.8596 -5.34501 -1.44142
LeftHand  -0.093042 6.85715 -4.06588
RightShoulder  0.342767 4.22398 -4.59768
RightArm  142.444 68.0102 70.9301
RightForeArm  -34.9831 29.5744 8.00072
RightHand  2.82076 23.1529 11.0792
LeftUpLeg  -19.1344 5.78177 1.69141
LeftLeg  7.26885 -1.13231 -1.68028
LeftFoot  7.20438 0.81667 -5.26936
LeftToes  1.68253e-010 -3.2327e-011 -2.69673e-012
335
root  70.4165 38.4177 12.102 137.354 85.8665 132.982
RightUpLeg  -22.9863 1.00958 -6.80587
RightLeg  17.2138 6.58028 1.88815
RightFoot  3.73786 -0.171056 1.48596
RightToes  5.82063e-011 0 -3.6325e-017
Spine  25.1786 -0.931956 4.42145
Spine1  9.10847 1.44279 -5.34363
HEad  -84.0682 -45.5842 76.4244
LeftShoulder1  1.55032 -5.83107 -9.2201
LeftArm  -47.5225 -74.9577 -2.27621
LeftForeArm  -24.8026 -3.65792 -1.66731
LeftHand  -0.0595569 5.9009 -4.8875
RightShoulder  0.330677 4.15934 -4.72961
RightArm  142.572 67.6124 68.19
RightForeArm  -36.9758 30.8887 8.67676
RightHand  2.86786 21.9914 7.86803
LeftUpLeg  -18.7814 5.84424 2.33183
LeftLeg  6.01764 -2.30057 -1.69955
LeftFoot  7.95655 0.990145 -6.10593
LeftToes  1.68253e-010 -3.2327e-011 -2.69673e-012
336
root  70.5032 38.4083 12.6372 150.298 84.7165 145.657
RightUpLeg  -23.1806 -0.144171 -5.91298
RightLeg  17.7271 6.15063 1.85921
RightFoot  3.36701 -0.0859463 0.843617
RightToes  5.82063e-011 0 -3.6325e-017
Spine  25.4657 -1.06097 3.94945
Spine1  8.81984 0.804001 -4.11516
HEad  -84.6825 -45.0994 76.3247
LeftShoulder1  1.59098 -6.21716 -8.9485
LeftArm  -48.3496 -74.6839 -1.32788
LeftForeArm  -24.7688 -2.40947 -1.35258
LeftHand  -0.0775234 6.17263 -5.41904
RightShoulder  0.304482 4.562 -5.35706
RightArm  139.941 62.2244 72.3338
RightForeArm  -30.5982 40.7956 11.4322
RightHand  0.386064 1.9942 -1.65868
LeftUpLeg  -18.7255 5.84179 2.86885
LeftLeg  4.88562 -3.77876 -1.63547
LeftFoot  8.6077 1.20363 -7.13468
LeftToes  1.68253e-010 -3.2327e-011 -2.69673e-012
337
root  70.5944 38.3948 13.1438 158.29 83.1812 153.509
RightUpLeg  -23.1178 -1.84773 -5.15923
RightLeg  18.1079 6.12061 1.9363
RightFoot  2.60959 -0.0428674 0.496625
RightToes  5.82063e-011 0 -3.6325e-017
Spine  25.9979 -1.47542 3.8362
Spine1  8.21385 0.177295 -3.70453
HEad  -84.8448 -44.8606 76.4954
LeftShoulder1  1.60368 -6.4567 -8.65511
LeftArm  -48.6025 -74.5039 -2.0082
LeftForeArm  -23.9056 -1.91069 -0.665439
LeftHand  -0.197654 8.09284 -6.18041
RightShoulder  0.303929 4.73412 -5.45295
RightArm  154.608 69.701 68.6786
RightForeArm  -49.5465 28.1601 7.95919
RightHand  2.51057 33.4316 8.2068
LeftUpLeg  -18.408 5.59062 3.17246
LeftLeg  3.45135 -5.14452 -1.27884
LeftFoot  8.93241 1.49229 -8.64329
LeftToes  1.68253e-010 -3.2327e-011 -2.69673e-012
338
root  70.661 38.4057 13.6255 162.578 82.213 157.566
RightUpLeg  -23.0987 -3.10602 -4.12891
RightLeg  17.9754 6.27574 1.95163
RightFoot  2.48209 0.04488 -0.229572
RightToes  5.82063e-011 0 -3.6325e-017
Spine  26.3564 -1.61317 4.08677
Spine1  7.8446 -0.00771207 -3.52843
HEad  -84.853 -45.3555 77.0387
LeftShoulder1  1.61085 -6.83601 -8.06853
LeftArm  -48.5589 -74.1347 -2.59311
LeftForeArm  -23.4655 -2.0105 -0.26513
LeftHand  -0.312828 9.63308 -6.76522
RightShoulder  0.30173 4.7311 -5.48415
RightArm  152.793 66.997 67.8027
RightForeArm  -48.9491 33.6585 9.7397
RightHand  1.88191 24.68 3.50497
LeftUpLeg  -17.832 5.61728 3.76702
LeftLeg  1.57097 -5.85638 -0.767278
LeftFoot  8.10481 1.93372 -11.5739
LeftToes  1.68253e-010 -3.2327e-011 -2.69673e-012
339
root  70.6909 38.4174 14.1142 167.367 81.1014 161.741
RightUpLeg  -23.436 -3.82707 -3.1262
RightLeg  17.5421 5.80681 1.69177
RightFoot  2.46026 0.110985 -0.778099
RightToes  5.82063e-011 0 -3.6325e-017
Spine  25.9579 -1.47768 3.72883
Spine1  8.40915 -0.39586 -2.02622
HEad  -85.5322 -44.9594 77.4
LeftShoulder1  1.6195 -7.05097 -7.80515
LeftArm  -49.9103 -73.7956 -1.74097
LeftForeArm  -21.9824 -2.31017 0.256308
LeftHand  -0.423055 10.9877 -7.19197
RightShoulder  0.268205 4.46556 -5.82521
RightArm  142.902 59.983 73.9241
RightForeArm  -33.7187 45.8854 13.3215
RightHand  -0.623933 -4.13649 -9.66395
LeftUpLeg  -17.898 5.71933 4.4067
LeftLeg  0.160265 -6.10643 -0.371213
LeftFoot  6.60054 2.1233 -13.6321
LeftToes  1.68253e-010 -3.2327e-011 -2.69673e-012
340
root  70.7233 38.4896 14.5791 168.069 80.2232 161.983
RightUpLeg  -23.2941 -3.2594 -2.79311
RightLeg  16.4322 4.47509 1.03785
RightFoot  2.56379 0.0854429 -0.552395
RightToes  5.82063e-011 0 -3.6325e-017
Spine  26.1758 -1.42534 3.03375
Spine1  8.32141 -0.640838 -1.35346
HEad  -85.9002 -44.0535 76.7637
LeftShoulder1  1.64038 -7.19725 -7.78954
LeftArm  -50.6769 -73.4674 -0.72922
LeftForeArm  -21.2338 -2.5453 0.301515
LeftHand  -0.51329 12.0178 -7.49751
RightShoulder  0.252716 4.48872 -6.06176
RightArm  146.751 62.1972 70.9638
RightForeArm  -37.7314 41.1271 14.7916
RightHand  -1.1671 6.36845 -5.16865
LeftUpLeg  -17.957 6.06926 4.76106
LeftLeg  -0.475359 -3.22016 -0.309681
LeftFoot  5.60402 1.78024 -12.136
LeftToes  1.68253e-010 -3.2327e-011 -2.69673e-012
